<svg width="234" height="145" viewBox="0 0 234 145" fill="none" xmlns="http://www.w3.org/2000/svg">
<path d="M132.28 37.1235C132.28 54.3022 132.28 71.4809 132.28 88.6596" stroke="black" stroke-width="4" stroke-linecap="round" stroke-linejoin="round"/>
<path d="M143.194 49.3524C142.261 52.2247 142.815 55.1781 142.788 58.0876C142.704 67.113 142.747 76.1396 142.768 85.1656C142.771 86.6284 142.494 88.1328 143.194 89.5331" stroke="black" stroke-width="4" stroke-linecap="round" stroke-linejoin="round"/>
<path d="M110.888 50.2259C109.926 54.5661 110.459 58.967 110.504 63.3278C110.594 72.0625 109.907 80.8121 110.888 89.5331" stroke="black" stroke-width="4" stroke-linecap="round" stroke-linejoin="round"/>
<path d="M121.366 57.2139C122.323 64.3308 121.671 71.4818 121.752 78.615C121.792 82.2472 122.328 85.9263 121.366 89.5331" stroke="black" stroke-width="4" stroke-linecap="round" stroke-linejoin="round"/>
<path d="M99.9736 73.8102C99.9736 78.76 99.9736 83.7098 99.9736 88.6596" stroke="black" stroke-width="4" stroke-linecap="round" stroke-linejoin="round"/>
<path d="M75.5261 25.3313C67.2544 27.8137 64.424 33.6727 64.5463 41.9287C64.7748 57.357 64.608 72.7912 64.6135 88.2229C64.6166 96.8717 70.3734 102.633 79.0187 102.634C107.25 102.638 135.483 102.461 163.712 102.749C171.498 102.829 178.588 96.7461 178.288 88.217C177.71 71.7865 178.119 55.3213 178.119 38.8705C178.119 31.0028 172.492 25.3409 164.586 25.3371C135.045 25.3227 105.504 25.3313 75.9627 25.3313" stroke="black" stroke-width="3" stroke-linecap="round" stroke-linejoin="round"/>
<path d="M60.2462 107.877C51.8989 109.334 51.2171 114.76 53.2206 118.815C55.2021 122.826 58.7519 123.136 62.4291 123.142C85.1305 123.183 107.832 123.163 130.533 123.163C147.56 123.163 164.588 123.312 181.611 123.1C190.168 122.993 192.236 116.908 189.584 111.749C187.808 108.295 184.952 108.075 182.045 107.947C176.526 107.704 170.989 107.877 165.459 107.877C130.533 107.877 95.6081 107.877 60.6827 107.877" stroke="black" stroke-width="3" stroke-linecap="round" stroke-linejoin="round"/>
</svg>
